<?xml version="1.0" encoding="utf-8"?>
<!-- Generator: Adobe Illustrator 19.2.1, SVG Export Plug-In . SVG Version: 6.00 Build 0)  -->
<svg version="1.1" id="Layer_1" xmlns="http://www.w3.org/2000/svg" xmlns:xlink="http://www.w3.org/1999/xlink" x="0px" y="0px"
	 width="192px" height="48px" viewBox="0 0 192 48" enable-background="new 0 0 192 48" xml:space="preserve">
<rect fill="none" width="192" height="48"/>
<path fill="#78C8FA" d="M60.07,33.08c0,0.42,0.36,0.64,1.19,0.64h0.68c0.83,0,1.19-0.22,1.19-0.64v-4.61h2.1
	c1.07,0,4.53-0.52,4.53-4.35s-2.96-4.35-4.73-4.35h-4.17c-0.55,0-0.79,0.24-0.79,0.79V33.08z M96.12,23.89
	c0-0.42-0.36-0.64-1.2-0.64h-0.56c-0.84,0-1.19,0.22-1.19,0.64v7.24c-0.32,0.18-0.77,0.38-1.39,0.38c-1.26,0-1.41-0.96-1.41-2.81
	V23.9c0-0.42-0.36-0.65-1.21-0.65H88.6c-0.85,0-1.21,0.22-1.21,0.65v4.81c0,3.11,1.08,5.13,3.76,5.13c0.93,0,1.61-0.32,2.03-0.62
	l0,1.84c0,0.59-0.2,0.85-0.72,0.85c-0.18,0-0.42-0.08-0.54-0.08c-0.4,0-0.62,1.27-0.62,1.43c0,0.92,1.29,0.98,1.91,0.98
	c1.87,0,2.9-1.02,2.9-3.22L96.12,23.89L96.12,23.89z M63.13,25.85v-3.47h1.77c0.75,0,1.73,0.32,1.73,1.75
	c0,1.43-0.97,1.73-1.73,1.73H63.13z M71.27,30.62c0,2.2,1.03,3.22,2.9,3.22c0.62,0,1.91-0.06,1.91-0.98c0-0.16-0.22-1.43-0.62-1.43
	c-0.12,0-0.36,0.08-0.54,0.08c-0.52,0-0.71-0.26-0.71-0.85v-10.9c0-0.42-0.36-0.64-1.19-0.64h-0.56c-0.83,0-1.19,0.22-1.19,0.64
	V30.62L71.27,30.62z M77.06,30.94c0,1.61,0.79,2.88,2.94,2.88c1.83,0,2.78-1.25,2.92-1.51c0.12,0.55,0.16,1.39,0.79,1.39
	c0.5,0,2.22-0.16,2.22-0.64c0-0.42-0.24-0.83-0.24-2.88v-3.73c0-1.93-1.13-3.32-4.27-3.32c-2.2,0-3.79,0.7-3.79,1.37
	c0,0.42,0.62,1.59,1.03,1.59c0.24,0,1.09-0.64,2.54-0.64c1.09,0,1.55,0.38,1.55,1.13v0.66C77.71,27.24,77.06,29.31,77.06,30.94
	L77.06,30.94z M79.97,30.63c0-0.95,0.89-1.46,2.78-1.46v1.09c-0.32,0.71-1.03,1.25-1.79,1.25C80.31,31.5,79.97,31.13,79.97,30.63z
	 M98.79,30.62c0,2.2,1.03,3.22,2.9,3.22c0.62,0,1.91-0.06,1.91-0.98c0-0.16-0.22-1.43-0.62-1.43c-0.12,0-0.36,0.08-0.54,0.08
	c-0.52,0-0.71-0.26-0.71-0.85v-5.04h0.97c0.42,0,0.6-0.3,0.6-0.99v-0.34c0-0.7-0.18-0.99-0.6-0.99h-0.97v-1.89
	c0-0.42-0.3-0.64-0.99-0.64h-0.62c-0.66,0-1.01,0.22-1.07,0.64l-0.26,1.89h-0.32c-0.42,0-0.6,0.3-0.6,0.99v0.34
	c0,0.7,0.18,0.99,0.6,0.99h0.32L98.79,30.62L98.79,30.62z M104.69,28.55c0,3.2,1.59,5.28,5.18,5.28c1.11,0,3.57-0.44,3.57-1.43
	c0-0.4-0.6-1.51-1.03-1.51c-0.28,0-1.15,0.62-2.4,0.62c-1.29,0-2.14-0.5-2.28-2.08h5.06c0.26,0,1.01-0.83,1.01-1.17
	c0-2.76-1.17-5.12-4.29-5.12C106.68,23.13,104.69,24.64,104.69,28.55L104.69,28.55z M107.73,27.46c0.24-1.53,0.95-2.01,1.79-2.01
	c0.99,0,1.43,0.85,1.43,2.01H107.73z M114.98,32.43c0,0.95,1.75,1.41,3.47,1.41c2.22,0,3.71-1.37,3.71-3.46
	c0-3.53-3.97-2.78-3.97-4.23c0-0.5,0.4-0.71,1.07-0.71c0.89,0,1.49,0.42,1.69,0.42c0.4,0,0.85-1.21,0.85-1.47
	c0-1.11-2.28-1.25-2.94-1.25c-2.24,0-3.65,1.23-3.65,3.22c0,3.55,3.97,2.52,3.97,4.27c0,0.6-0.38,0.89-1.21,0.89
	c-0.93,0-1.69-0.56-1.95-0.56C115.61,30.96,114.98,32.03,114.98,32.43z M123.89,30.62c0,2.2,1.03,3.22,2.9,3.22
	c0.62,0,1.91-0.06,1.91-0.98c0-0.16-0.22-1.43-0.62-1.43c-0.12,0-0.36,0.08-0.54,0.08c-0.52,0-0.71-0.26-0.71-0.85v-5.04h0.97
	c0.42,0,0.6-0.3,0.6-0.99v-0.34c0-0.7-0.18-0.99-0.6-0.99h-0.97v-1.89c0-0.42-0.3-0.64-0.99-0.64h-0.62c-0.66,0-1.01,0.22-1.07,0.64
	l-0.26,1.89h-0.32c-0.42,0-0.6,0.3-0.6,0.99v0.34c0,0.7,0.18,0.99,0.6,0.99h0.32L123.89,30.62L123.89,30.62z M130.44,26.69
	c0,4.9,2.08,7.15,6.53,7.15c1.59,0,4.43-0.48,4.43-1.67c0-0.34-0.54-1.73-1.17-1.73c-0.3,0-1.37,0.79-3.26,0.79
	c-2.28,0-3.4-1.55-3.4-4.53c0-2.98,1.09-4.47,3.44-4.47c1.89,0,2.68,0.64,2.92,0.64c0.5,0,1.29-1.31,1.29-1.87
	c0-0.83-2.4-1.39-4.15-1.39C132.67,19.62,130.44,21.96,130.44,26.69L130.44,26.69z M142.89,30.62c0,2.2,1.03,3.22,2.9,3.22
	c0.62,0,1.91-0.06,1.91-0.98c0-0.16-0.22-1.43-0.62-1.43c-0.12,0-0.36,0.08-0.54,0.08c-0.52,0-0.71-0.26-0.71-0.85v-10.9
	c0-0.42-0.36-0.64-1.19-0.64h-0.56c-0.83,0-1.19,0.22-1.19,0.64V30.62L142.89,30.62z M148.37,28.48c0,3.45,1.67,5.36,4.82,5.36
	c3.16,0,4.81-1.91,4.81-5.36c0-3.45-1.65-5.34-4.81-5.34C150.04,23.13,148.37,25.02,148.37,28.48z M153.2,31.51
	c-1.27,0-1.85-1.05-1.85-3.04c0-1.99,0.58-3.02,1.85-3.02c1.27,0,1.83,1.03,1.83,3.02C155.02,30.46,154.47,31.51,153.2,31.51z
	 M159.81,30.62c0,2.18,0.93,3.2,2.92,3.2c1.29,0,2.38-0.76,2.96-1.51c0.12,0.55,0.16,1.39,0.79,1.39c0.5,0,2.22-0.16,2.22-0.64
	c0-0.42-0.24-0.83-0.24-2.88v-6.29c0-0.42-0.36-0.64-1.19-0.64h-0.56c-0.83,0-1.19,0.22-1.19,0.64v6.36
	c-0.24,0.46-0.77,1.15-1.59,1.15c-0.87,0-1.19-0.45-1.19-1.23v-6.28c0-0.42-0.36-0.64-1.19-0.64H161c-0.83,0-1.19,0.22-1.19,0.64
	V30.62L159.81,30.62z M173.85,33.84c1.23,0,2.2-0.64,2.66-1.49c0.12,0.52,0.16,1.35,0.79,1.35c0.5,0,2.22-0.16,2.22-0.64
	c0-0.42-0.24-0.83-0.24-2.88V19.76c0-0.42-0.36-0.64-1.19-0.64h-0.56c-0.83,0-1.19,0.22-1.19,0.64v3.99
	c-0.42-0.3-1.09-0.62-2.03-0.62c-2.68,0-4.19,2.1-4.19,5.34c0,3.44,1.57,5.34,3.71,5.34V33.84z M174.72,31.42
	c-1.09,0-1.61-1.03-1.61-2.95c0-1.98,0.6-3.01,1.85-3.01c0.62,0,1.07,0.2,1.39,0.38v4.41C175.99,30.86,175.47,31.42,174.72,31.42
	L174.72,31.42z"/>
<path fill="#FAFAFA" d="M49.3,26.41h1.83c1.43,0,2.6,1.17,2.6,2.6v0.62c0,1.43-1.17,2.6-2.6,2.6H49.3c-1.43,0-2.6-1.17-2.6-2.6
	v-0.62C46.7,27.58,47.87,26.41,49.3,26.41z"/>
<g>
	<path fill="#AAAAAA" d="M48.51,24.43h2.77l0.24-2.77c0.03-0.33-0.22-0.63-0.56-0.66l-8.02-0.7c-0.33-0.03-0.63,0.22-0.66,0.56
		l-1.38,15.72c-0.03,0.33,0.22,0.63,0.56,0.66l8.02,0.7c0.33,0.03,0.63-0.22,0.66-0.56l0.28-3.17h-1.92c-2.33,0-3.92-1.97-3.92-4.37
		V28.8C44.59,26.4,46.18,24.43,48.51,24.43z M44.5,24.04c-0.62-0.05-1.08-0.61-1.03-1.23c0.05-0.62,0.61-1.08,1.23-1.03
		c0.62,0.05,1.08,0.61,1.03,1.23C45.67,23.64,45.12,24.1,44.5,24.04z"/>
	<polygon fill="#AAAAAA" points="42.95,20.3 42.95,20.3 42.95,20.3 	"/>
</g>
<path fill="#FAFAFA" d="M38.47,10.25c-3.71,0-6.91,2.25-8.31,5.45c-1.05-0.59-2.26-0.92-3.55-0.92c-4,0-7.27,3.24-7.32,7.23H19.1
	c-3.66,0-6.66,3-6.66,6.66c0,3.66,3,6.66,6.66,6.66h19.66l0.42-4.83c-1.78,0.7-3.71,1.08-5.73,1.08c-3.88,0-7.44-1.41-10.2-3.74
	l1.55-1.55c2.36,1.94,5.37,3.1,8.65,3.1c2.13,0,4.15-0.49,5.95-1.37l0.79-9.01c0.06-0.73,0.71-1.27,1.43-1.2l5.85,0.51
	C46.98,13.8,43.13,10.25,38.47,10.25z M32.03,27.2c-0.93,0-1.7-0.84-1.7-1.88c0-1.04,0.76-1.88,1.7-1.88c0.93,0,1.7,0.84,1.7,1.88
	C33.73,26.36,32.97,27.2,32.03,27.2z M36.7,27.2c-0.93,0-1.7-0.84-1.7-1.88c0-1.04,0.76-1.88,1.7-1.88c0.93,0,1.7,0.84,1.7,1.88
	C38.39,26.36,37.63,27.2,36.7,27.2z"/>
</svg>
